<?xml version="1.0" encoding="UTF-8"?>
<svg width="24px" height="24px" viewBox="0 0 24 24" version="1.1" xmlns="http://www.w3.org/2000/svg">
    <g stroke="none" stroke-width="1" fill="none" fill-rule="evenodd">
        <path d="M12,17 C14.209139,17 16,15.209139 16,13 C16,10.790861 14.209139,9 12,9 C9.790861,9 8,10.790861 8,13 C8,15.209139 9.790861,17 12,17 Z" fill="#BB2528"/>
        <path d="M9,2 L15,2 C15.5522847,2 16,2.44771525 16,3 L16,4 L8,4 L8,3 C8,2.44771525 8.44771525,2 9,2 Z" fill="#BB2528"/>
        <path d="M3,6 L21,6 C22.1045695,6 23,6.8954305 23,8 L23,18 C23,19.1045695 22.1045695,20 21,20 L3,20 C1.8954305,20 1,19.1045695 1,18 L1,8 C1,6.8954305 1.8954305,6 3,6 Z M12,19 C15.3137085,19 18,16.3137085 18,13 C18,9.6862915 15.3137085,7 12,7 C8.6862915,7 6,9.6862915 6,13 C6,16.3137085 8.6862915,19 12,19 Z" fill="#BB2528"/>
    </g>
</svg>
